<?xml version="1.0" encoding="utf-8"?>
<svg version="1.1" id="Camada_1" xmlns="http://www.w3.org/2000/svg" xmlns:xlink="http://www.w3.org/1999/xlink" x="0px" y="0px"
	 viewBox="0 0 1959.2 458" style="enable-background:new 0 0 1959.2 458;" xml:space="preserve">
<style type="text/css">
	.st0{fill:#009311;}
	.st1{fill:#BA0000;}
</style>
<path class="st0" d="M196,2.5C85.4,18.6,0.4,113.9,0.4,229s85,210.5,195.6,226.6V2.5z"/>
<path class="st1" d="M453.5,271.9c2.6-13.9,4-28.3,4-42.9c0-115-85-210.2-195.5-226.3v269.2H453.5z"/>
<path class="st1" d="M330.5,337.9v96.4c18.4-9.1,35.4-20.6,50.5-34.1v-62.4H330.5z"/>
<path class="st0" d="M687.7,117.9c-30.6,0-54.7,9.8-72.3,29.4c-17.6,19.6-26.4,46.4-26.4,80.5c0,34.9,8.3,61.9,24.9,81.2
	c16.6,19.3,40.3,28.9,71.2,28.9c20.5,0,39.3-2.6,56.5-7.9v15c-16.2,5.7-36.3,8.5-60.5,8.5c-34.3,0-61.3-11.1-81-33.2
	c-19.7-22.2-29.6-53.1-29.6-92.9c0-24.8,4.7-46.7,14.1-65.7c9.4-18.9,22.9-33.5,40.6-43.9c17.7-10.3,38.2-15.5,61.6-15.5
	c23.8,0,45.2,4.5,64,13.4l-6.8,15.4C726,122.3,707.3,117.9,687.7,117.9z"/>
<path class="st0" d="M902,350.3l-4.2-28.7h-1.3c-9.1,11.7-18.5,20-28.1,24.8c-9.6,4.8-21,7.3-34.2,7.3c-17.8,0-31.7-4.6-41.6-13.7
	c-9.9-9.1-14.9-21.8-14.9-37.9c0-17.7,7.4-31.5,22.1-41.3c14.8-9.8,36.1-15,64.1-15.5l34.6-1v-12c0-17.3-3.5-30.3-10.5-39.1
	c-7-8.8-18.3-13.2-33.9-13.2c-16.8,0-34.2,4.7-52.3,14l-6.2-14.4c19.9-9.4,39.6-14,59.1-14c19.9,0,34.8,5.2,44.7,15.5
	c9.9,10.4,14.8,26.5,14.8,48.4v120.8H902z M835.2,338.6c19.4,0,34.7-5.5,45.9-16.6c11.2-11.1,16.8-26.5,16.8-46.2v-17.9l-31.7,1.3
	c-25.5,1.2-43.7,5.2-54.5,11.9c-10.9,6.7-16.3,17.2-16.3,31.5c0,11.4,3.5,20.2,10.4,26.5C812.6,335.4,822.5,338.6,835.2,338.6z"/>
<path class="st0" d="M1099.6,350.3V232.5c0-18.3-3.8-31.5-11.5-39.8c-7.7-8.3-19.6-12.4-35.8-12.4c-21.7,0-37.6,5.5-47.7,16.5
	c-10.1,11-15.1,28.8-15.1,53.4v100.2H973V168.7h14l3.2,24.9h1c11.8-18.9,32.8-28.4,63-28.4c41.2,0,61.8,22.1,61.8,66.3v118.8H1099.6
	z"/>
<path class="st0" d="M1241.3,165.2c13.1,0,24.5,2.4,34.1,7.2c9.6,4.8,18.2,13,25.7,24.6h1c-0.7-14-1-27.8-1-41.3V90.3h16.4v259.9
	h-10.9l-4.2-27.7h-1.3c-13.8,20.7-33.6,31.1-59.5,31.1c-25.1,0-44.2-7.8-57.5-23.4c-13.3-15.6-19.9-38.3-19.9-68.2
	c0-31.4,6.6-55.4,19.7-72C1197.1,173.4,1216.2,165.2,1241.3,165.2z M1241.3,180.2c-19.8,0-34.7,7-44.7,20.9
	c-10,13.9-15,34.1-15,60.6c0,51.5,20,77.2,60,77.2c20.5,0,35.5-6,45.1-17.9c9.6-11.9,14.4-31.6,14.4-59v-2.8
	c0-28.1-4.7-48.3-14.1-60.6C1277.6,186.3,1262.3,180.2,1241.3,180.2z"/>
<path class="st0" d="M1395,350.3h-16.5V90.3h16.5V350.3z"/>
<path class="st0" d="M1529.1,353.6c-26.4,0-47-8.1-61.7-24.4c-14.8-16.3-22.1-39-22.1-68.3c0-29,7.1-52.1,21.4-69.6
	c14.3-17.4,33.5-26.1,57.6-26.1c21.4,0,38.3,7.5,50.6,22.4c12.4,14.9,18.5,35.2,18.5,60.8v13.4h-130.8c0.2,24.9,6,44,17.5,57.1
	c11.4,13.1,27.8,19.7,49,19.7c10.4,0,19.5-0.7,27.3-2.2c7.9-1.4,17.8-4.6,29.8-9.4v15c-10.2,4.5-19.7,7.5-28.4,9.1
	C1549.2,352.8,1539.6,353.6,1529.1,353.6z M1524.3,179.9c-17.5,0-31.5,5.8-42.1,17.3c-10.6,11.5-16.8,28.1-18.5,49.9h112.3
	c0-21-4.6-37.5-13.7-49.4C1553.1,185.8,1540.4,179.9,1524.3,179.9z"/>
<path class="st1" d="M1660.1,350.3h-16.5V90.3h16.5V350.3z"/>
<path class="st1" d="M1718.6,118.2c0-10.7,3.5-16,10.5-16c3.5,0,6.2,1.4,8.1,4.2c1.9,2.8,2.9,6.7,2.9,11.9c0,5-1,9-2.9,11.9
	c-1.9,2.9-4.7,4.3-8.1,4.3C1722.1,134.4,1718.6,129,1718.6,118.2z M1737.5,350.3h-16.5V168.7h16.5V350.3z"/>
<path class="st1" d="M1846.2,338.9c10.5,0,19.6-0.9,27.4-2.7v13.4c-8,2.7-17.3,4-27.7,4c-16,0-27.9-4.3-35.5-12.9
	c-7.6-8.6-11.4-22.1-11.4-40.4V183H1772v-9.7l26.9-7.5l8.4-41.1h8.5v43.9h53.3V183h-53.3V298c0,13.9,2.4,24.2,7.4,30.9
	C1828.1,335.5,1835.7,338.9,1846.2,338.9z"/>
</svg>
