<?xml version="1.0" encoding="utf-8"?>
<!-- Generator: Adobe Illustrator 24.0.1, SVG Export Plug-In . SVG Version: 6.00 Build 0)  -->
<svg version="1.1" id="Camada_1" xmlns="http://www.w3.org/2000/svg" xmlns:xlink="http://www.w3.org/1999/xlink" x="0px" y="0px"
	 viewBox="0 0 235 250" style="enable-background:new 0 0 235 250;" xml:space="preserve">
<style type="text/css">
	.st0{fill:url(#SVGID_1_);}
	.st1{fill:url(#SVGID_2_);}
	.st2{fill:url(#SVGID_3_);}
	.st3{fill:url(#SVGID_4_);}
	.st4{fill:url(#SVGID_5_);}
</style>
<linearGradient id="SVGID_1_" gradientUnits="userSpaceOnUse" x1="82" y1="123" x2="84" y2="123">
	<stop  offset="0" style="stop-color:#A67C52"/>
	<stop  offset="1" style="stop-color:#8C6239"/>
</linearGradient>
<rect x="82" y="106" class="st0" width="2" height="34"/>
<g>
	<linearGradient id="SVGID_2_" gradientUnits="userSpaceOnUse" x1="59" y1="187.5" x2="106" y2="187.5">
		<stop  offset="0" style="stop-color:#C1272D"/>
		<stop  offset="1" style="stop-color:#80272D"/>
	</linearGradient>
	<rect x="59" y="139" class="st1" width="47" height="97"/>
</g>
<g>
	<linearGradient id="SVGID_3_" gradientUnits="userSpaceOnUse" x1="121" y1="151" x2="168" y2="151">
		<stop  offset="0" style="stop-color:#006837"/>
		<stop  offset="1" style="stop-color:#004337"/>
	</linearGradient>
	<rect x="121" y="66" class="st2" width="47" height="170"/>
</g>
<linearGradient id="SVGID_4_" gradientUnits="userSpaceOnUse" x1="144" y1="59.5" x2="146" y2="59.5">
	<stop  offset="0" style="stop-color:#A67C52"/>
	<stop  offset="1" style="stop-color:#8C6239"/>
</linearGradient>
<rect x="144" y="53" class="st3" width="2" height="13"/>
<radialGradient id="SVGID_5_" cx="144.8388" cy="39.6537" r="25.2682" fx="144.6698" fy="62.6258" gradientUnits="userSpaceOnUse">
	<stop  offset="0" style="stop-color:#FFFFFF"/>
	<stop  offset="5.886855e-02" style="stop-color:#FFE1C0"/>
	<stop  offset="0.1442" style="stop-color:#FFB769"/>
	<stop  offset="0.2044" style="stop-color:#FF9D33"/>
	<stop  offset="0.2335" style="stop-color:#FF931E"/>
	<stop  offset="1" style="stop-color:#FF1D25"/>
</radialGradient>
<path class="st4" d="M144.9,0c0,0-14.7,25.2-14.7,50.3c0,8.1,6.6,14.7,14.7,14.7c8.1,0,14.7-6.6,14.7-14.7
	C163.3,37.8,136.5,23.1,144.9,0z"/>
</svg>
