<?xml version="1.0" encoding="utf-8"?>
<!-- Generator: Adobe Illustrator 24.0.1, SVG Export Plug-In . SVG Version: 6.00 Build 0)  -->
<svg version="1.1" id="Camada_1" xmlns="http://www.w3.org/2000/svg" xmlns:xlink="http://www.w3.org/1999/xlink" x="0px" y="0px"
	 viewBox="0 0 974 724" style="enable-background:new 0 0 974 724;" xml:space="preserve">
<style type="text/css">
	.st0{fill:#009311;}
	.st1{fill:#BA0000;}
</style>
<path class="st0" d="M672.9,223.8L520,376.7c-2.8,2.8-6.5,4.2-10.2,4.2c-3.7,0-7.4-1.4-10.2-4.2l-99.6-99.6l-59.3,59.3
	c-2.7,2.7-6.3,4.2-10.2,4.2h-80.1v48.5c0,41.4,33.5,74.9,74.9,74.9h357.1c41.4,0,74.9-33.5,74.9-74.9v-80.7L672.9,223.8z"/>
<path class="st1" d="M682.5,106H325.5c-41.4,0-74.9,33.5-74.9,74.9v131h74.1l65.3-65.3c5.6-5.6,14.7-5.6,20.3,0l99.6,99.6
	l152.8-152.8c5.6-5.6,14.7-5.6,20.3,0l74.4,74.4v-86.8C757.4,139.5,723.9,106,682.5,106z M326.4,233.7c-19.8,0-35.8-16-35.8-35.8
	s16-35.8,35.8-35.8s35.8,16,35.8,35.8S346.2,233.7,326.4,233.7z"/>
<g>
	<path class="st0" d="M58.2,663.2v-81.7h9.5v81.7H58.2z"/>
	<path class="st0" d="M166.8,663.2v-39.8c0-4.9-1-8.5-3.1-11c-2.1-2.4-5.3-3.7-9.7-3.7c-5.8,0-10,1.7-12.8,5
		c-2.8,3.3-4.1,8.4-4.1,15.3v34.2h-9.3v-39.8c0-4.9-1-8.5-3.1-11c-2.1-2.4-5.3-3.7-9.8-3.7c-5.8,0-10.1,1.7-12.8,5.2
		c-2.7,3.5-4,9.2-4,17.1v32.1h-9.3V602h7.5l1.5,8.4h0.4c1.8-3,4.2-5.3,7.4-7s6.7-2.5,10.7-2.5c9.6,0,15.8,3.5,18.8,10.4h0.4
		c1.8-3.2,4.5-5.7,7.9-7.6c3.5-1.9,7.4-2.8,11.8-2.8c6.9,0,12.1,1.8,15.6,5.3c3.4,3.6,5.2,9.2,5.2,17.1v39.9H166.8z"/>
	<path class="st0" d="M232.8,663.2l-1.8-8.7h-0.4c-3.1,3.8-6.1,6.4-9.1,7.8c-3,1.4-6.8,2-11.4,2c-6.1,0-10.8-1.6-14.3-4.7
		c-3.4-3.1-5.2-7.6-5.2-13.3c0-12.4,9.9-18.8,29.7-19.4l10.4-0.3v-3.8c0-4.8-1-8.4-3.1-10.6c-2.1-2.3-5.4-3.4-9.9-3.4
		c-5.1,0-10.9,1.6-17.3,4.7l-2.8-7.1c3-1.6,6.3-2.9,9.9-3.9c3.6-0.9,7.2-1.4,10.8-1.4c7.3,0,12.7,1.6,16.2,4.9s5.3,8.4,5.3,15.6
		v41.8H232.8z M211.8,656.7c5.8,0,10.3-1.6,13.6-4.7c3.3-3.2,4.9-7.6,4.9-13.3v-5.5l-9.3,0.4c-7.4,0.3-12.7,1.4-15.9,3.4
		c-3.3,2-4.9,5.2-4.9,9.5c0,3.4,1,5.9,3,7.7C205.3,655.8,208.2,656.7,211.8,656.7z"/>
	<path class="st0" d="M308.9,602v5.9l-11.3,1.3c1,1.3,2,3,2.8,5.1c0.8,2.1,1.2,4.5,1.2,7.1c0,6-2,10.8-6.1,14.4
		c-4.1,3.6-9.7,5.4-16.9,5.4c-1.8,0-3.5-0.1-5.1-0.4c-3.9,2.1-5.9,4.7-5.9,7.9c0,1.7,0.7,2.9,2.1,3.7c1.4,0.8,3.7,1.2,7.1,1.2h10.8
		c6.6,0,11.7,1.4,15.3,4.2c3.6,2.8,5.3,6.9,5.3,12.2c0,6.8-2.7,11.9-8.2,15.5c-5.4,3.6-13.4,5.3-23.8,5.3c-8,0-14.2-1.5-18.5-4.5
		c-4.3-3-6.5-7.2-6.5-12.6c0-3.7,1.2-6.9,3.6-9.7c2.4-2.7,5.7-4.6,10.1-5.5c-1.6-0.7-2.9-1.8-3.9-3.3c-1.1-1.5-1.6-3.2-1.6-5.2
		c0-2.2,0.6-4.2,1.8-5.9c1.2-1.7,3.1-3.3,5.6-4.9c-3.2-1.3-5.7-3.5-7.7-6.6c-2-3.1-3-6.7-3-10.7c0-6.7,2-11.9,6-15.5
		c4-3.6,9.7-5.4,17.1-5.4c3.2,0,6.1,0.4,8.7,1.1H308.9z M260,673.5c0,3.3,1.4,5.8,4.2,7.5s6.8,2.6,12,2.6c7.8,0,13.5-1.2,17.3-3.5
		c3.7-2.3,5.6-5.5,5.6-9.5c0-3.3-1-5.6-3.1-6.9c-2-1.3-5.9-1.9-11.6-1.9h-11.1c-4.2,0-7.5,1-9.8,3S260,669.7,260,673.5z
		 M265.1,621.6c0,4.3,1.2,7.5,3.6,9.7c2.4,2.2,5.8,3.3,10.1,3.3c9,0,13.6-4.4,13.6-13.2c0-9.2-4.6-13.8-13.7-13.8
		c-4.4,0-7.7,1.2-10.1,3.5S265.1,617,265.1,621.6z"/>
	<path class="st0" d="M347.3,664.3c-9,0-16.2-2.8-21.4-8.3c-5.2-5.5-7.8-13.2-7.8-23c0-9.9,2.4-17.7,7.3-23.5
		c4.9-5.8,11.4-8.7,19.6-8.7c7.7,0,13.7,2.5,18.2,7.6c4.5,5,6.7,11.7,6.7,20v5.9h-42.2c0.2,7.2,2,12.6,5.4,16.4
		c3.4,3.7,8.3,5.6,14.6,5.6c6.6,0,13.1-1.4,19.6-4.1v8.3c-3.3,1.4-6.4,2.4-9.3,3C355,664,351.4,664.3,347.3,664.3z M344.8,608.6
		c-4.9,0-8.8,1.6-11.8,4.8c-2.9,3.2-4.6,7.6-5.2,13.3h32c0-5.8-1.3-10.3-3.9-13.4C353.3,610.2,349.6,608.6,344.8,608.6z"/>
	<path class="st1" d="M457.2,663.2v-39.6c0-5-1.1-8.7-3.4-11.2c-2.3-2.5-5.8-3.7-10.7-3.7c-6.4,0-11.1,1.7-14.1,5.2
		c-3,3.5-4.5,9.2-4.5,17.1v32.1h-9.3V602h7.5l1.5,8.4h0.4c1.9-3,4.6-5.4,8-7c3.4-1.7,7.2-2.5,11.5-2.5c7.4,0,12.9,1.8,16.6,5.3
		c3.7,3.6,5.6,9.2,5.6,17.1v39.9H457.2z"/>
	<path class="st1" d="M538.4,632.5c0,10-2.5,17.8-7.5,23.4s-12,8.4-20.8,8.4c-5.5,0-10.3-1.3-14.6-3.9s-7.5-6.3-9.8-11.1
		c-2.3-4.8-3.5-10.4-3.5-16.9c0-10,2.5-17.8,7.5-23.3s11.9-8.4,20.8-8.4c8.6,0,15.4,2.8,20.4,8.5
		C535.9,615.1,538.4,622.8,538.4,632.5z M491.7,632.5c0,7.8,1.6,13.8,4.7,17.9s7.7,6.1,13.8,6.1c6.1,0,10.7-2,13.8-6.1
		c3.1-4.1,4.7-10,4.7-17.9c0-7.8-1.6-13.7-4.7-17.7c-3.1-4-7.8-6.1-13.9-6.1c-6.1,0-10.7,2-13.7,6
		C493.3,618.7,491.7,624.6,491.7,632.5z"/>
	<path class="st1" d="M574.4,656.7c1.6,0,3.2-0.1,4.7-0.4c1.5-0.2,2.7-0.5,3.6-0.8v7.1c-1,0.5-2.5,0.9-4.4,1.2
		c-2,0.3-3.7,0.5-5.3,0.5c-11.8,0-17.8-6.2-17.8-18.7v-36.4h-8.8v-4.5l8.8-3.9l3.9-13.1h5.4V602h17.8v7.2h-17.8v36
		c0,3.7,0.9,6.5,2.6,8.5C569,655.7,571.4,656.7,574.4,656.7z"/>
	<path class="st0" d="M652.3,609.2h-15.6v54h-9.3v-54h-10.9V605l10.9-3.4v-3.4c0-15,6.6-22.6,19.7-22.6c3.2,0,7,0.7,11.4,2l-2.4,7.4
		c-3.6-1.2-6.6-1.7-9.2-1.7c-3.5,0-6.1,1.2-7.8,3.5s-2.5,6.1-2.5,11.2v4h15.6V609.2z"/>
	<path class="st0" d="M716.3,632.5c0,10-2.5,17.8-7.5,23.4s-12,8.4-20.8,8.4c-5.5,0-10.3-1.3-14.6-3.9s-7.5-6.3-9.8-11.1
		c-2.3-4.8-3.5-10.4-3.5-16.9c0-10,2.5-17.8,7.5-23.3s11.9-8.4,20.8-8.4c8.6,0,15.4,2.8,20.4,8.5
		C713.8,615.1,716.3,622.8,716.3,632.5z M669.7,632.5c0,7.8,1.6,13.8,4.7,17.9s7.7,6.1,13.8,6.1c6.1,0,10.7-2,13.8-6.1
		c3.1-4.1,4.7-10,4.7-17.9c0-7.8-1.6-13.7-4.7-17.7c-3.1-4-7.8-6.1-13.9-6.1c-6.1,0-10.7,2-13.7,6
		C671.3,618.7,669.7,624.6,669.7,632.5z"/>
	<path class="st0" d="M741.3,602v39.7c0,5,1.1,8.7,3.4,11.2c2.3,2.5,5.8,3.7,10.7,3.7c6.4,0,11.1-1.8,14-5.3c3-3.5,4.4-9.2,4.4-17.1
		V602h9.3v61.2h-7.7l-1.3-8.2h-0.5c-1.9,3-4.5,5.3-7.9,6.9c-3.4,1.6-7.2,2.4-11.5,2.4c-7.4,0-13-1.8-16.7-5.3
		c-3.7-3.5-5.6-9.2-5.6-17V602H741.3z"/>
	<path class="st0" d="M844.7,663.2v-39.6c0-5-1.1-8.7-3.4-11.2c-2.3-2.5-5.8-3.7-10.7-3.7c-6.4,0-11.1,1.7-14.1,5.2
		c-3,3.5-4.5,9.2-4.5,17.1v32.1h-9.3V602h7.5l1.5,8.4h0.4c1.9-3,4.6-5.4,8-7c3.4-1.7,7.2-2.5,11.5-2.5c7.4,0,12.9,1.8,16.6,5.3
		c3.7,3.6,5.6,9.2,5.6,17.1v39.9H844.7z"/>
	<path class="st0" d="M914.7,655h-0.5c-4.3,6.2-10.7,9.3-19.2,9.3c-8,0-14.2-2.7-18.7-8.2c-4.5-5.5-6.7-13.3-6.7-23.3
		s2.2-17.9,6.7-23.5s10.7-8.4,18.7-8.4c8.3,0,14.7,3,19.1,9h0.7l-0.4-4.4l-0.2-4.3v-24.9h9.3v86.9h-7.5L914.7,655z M896.2,656.5
		c6.3,0,10.9-1.7,13.8-5.2c2.8-3.4,4.3-9,4.3-16.7v-2c0-8.7-1.4-14.9-4.3-18.6c-2.9-3.7-7.5-5.6-13.8-5.6c-5.4,0-9.6,2.1-12.5,6.3
		c-2.9,4.2-4.3,10.2-4.3,17.9c0,7.8,1.4,13.7,4.3,17.7C886.4,654.5,890.6,656.5,896.2,656.5z"/>
</g>
</svg>
